<?xml version="1.0" encoding="UTF-8"?>
<svg xmlns="http://www.w3.org/2000/svg" viewBox="0 0 32 32">
  <path d="M15.9.087l.854 1.604c.192.296.4.558.645.802.715.715 1.394 1.464 2.004 2.266 1.447 1.9 2.423 4.01 3.12 6.292.418 1.394.645 2.824.662 4.27.07 4.323-1.412 8.035-4.4 11.12-.488.488-1.01.94-1.57 1.342-.296 0-.436-.227-.558-.436-.227-.383-.366-.82-.436-1.255-.105-.523-.174-1.046-.14-1.586v-.244C16.057 24.21 15.796.21 15.9.087z" fill="#599636"/>
  <path d="M15.9.034c-.035-.07-.07-.017-.105.017.017.35-.105 16.304-.105 16.304C15.755 16.8 15.653 22.4 13.9 24.28c-.087.105-.18.227-.296.227h-.017c-.618-.156-1.255-.45-1.8-.854-.488-.366-1.046-.96-1.5-1.5-1.764-2.006-3.12-4.358-3.647-7.035-.296-1.604-.296-3.13 0-4.736.854-5.18 4.27-9.434 9.1-11.6l.105-.034c.21-.063.296-.18.366-.38C15.647.447 15.83.167 15.9.034z" fill="#6cac48"/>
  <path d="M16.754 28.845c.035-.4.227-.813.436-1.255-.21.296-.366.61-.488.96-.105.34-.122.663-.105.96 0 .418.052.872.174 1.255.105.383.296.728.488 1.046l.017.05c.17.398.367.78.645 1.15.488.747 1.15 1.342 1.937 1.764l.8.383c.066.035.14.07.227.063.07-.016.12-.07.157-.14l.034-.053c.12-.19.174-.38.21-.59.052-.227.087-.48.063-.74-.07-.813-.4-1.607-.96-2.197-.174-.174-.38-.435-.575-.648-.227-.227-.463-.435-.645-.645-.66-.663-1.394-1.255-2.027-1.937-.017-.35-.035-.07-.07-.087 0-.05-.017-.052-.03-.07l-.015-.02z" fill="#c2bfbf"/>
</svg>
